<?xml version="1.0" encoding="UTF-8" standalone="no"?>
<!DOCTYPE svg PUBLIC "-//W3C//DTD SVG 1.1//EN" "http://www.w3.org/Graphics/SVG/1.1/DTD/svg11.dtd">
<svg width="100%" height="100%" viewBox="0 0 1182 1182" version="1.1" xmlns="http://www.w3.org/2000/svg" xmlns:xlink="http://www.w3.org/1999/xlink" xml:space="preserve" xmlns:serif="http://www.serif.com/" style="fill-rule:evenodd;clip-rule:evenodd;stroke-linecap:round;stroke-linejoin:round;stroke-miterlimit:1.5;">
    <g id="大三">
    </g>
    <g>
        <g transform="matrix(4.84058,0,0,3.88521,-590.551,-345.783)">
            <rect x="122" y="89" width="244" height="304" style="fill:none;"/>
        </g>
        <g transform="matrix(0.633403,0,0,0.633403,-82.2613,-592.717)">
            <path d="M1062.22,1264.79L1062.22,1868.11M760.554,1345.62L1062.22,1868.11M539.721,1566.45L1062.22,1868.11M458.89,1868.11L1062.22,1868.11M539.721,2169.78L1062.22,1868.11M760.554,2390.61L1062.22,1868.11M1062.22,2471.44L1062.22,1868.11M1363.88,2390.61L1062.22,1868.11M1584.72,2169.78L1062.22,1868.11M1665.55,1868.11L1062.22,1868.11M1584.72,1566.45L1062.22,1868.11M1363.88,1345.62L1062.22,1868.11" style="fill:rgb(235,235,235);stroke:black;stroke-opacity:0.09;stroke-width:5.26px;"/>
        </g>
    </g>
</svg>
